<?xml version="1.0" encoding="UTF-8"?>
<svg width="512px" height="426px" viewBox="0 0 512 426" version="1.1" xmlns="http://www.w3.org/2000/svg" xmlns:xlink="http://www.w3.org/1999/xlink">
    <!-- Generator: Sketch 59.1 (86144) - https://sketch.com -->
    <title>undo</title>
    <desc>Created with Sketch.</desc>
    <g id="Page-1" stroke="none" stroke-width="1" fill="none" fill-rule="evenodd">
        <g id="undo" fill="#111111" fill-rule="nonzero">
            <path d="M142.716,250.147 L48.716,142.545 L142.716,34.943 C150.312,26.238 149.426,13.019 140.721,5.416 C132.016,-2.18 118.804,-1.287 111.194,7.411 L5.169,128.782 C-1.723,136.664 -1.723,148.432 5.169,156.314 L111.195,277.686 C115.338,282.415 121.135,284.843 126.966,284.843 C131.849,284.843 136.752,283.141 140.721,279.674 C149.427,272.071 150.319,258.852 142.716,250.147 Z" id="Path"></path>
            <path d="M359.93,121.619 L20.926,121.619 C9.368,121.619 0,130.986 0,142.545 C0,154.103 9.368,163.471 20.926,163.471 L359.93,163.471 C420.706,163.471 470.148,212.912 470.148,273.682 C470.148,334.452 420.706,383.893 359.93,383.893 L48.828,383.893 C37.27,383.893 27.902,393.261 27.902,404.819 C27.902,416.377 37.27,425.745 48.828,425.745 L359.93,425.745 C443.774,425.745 512,357.526 512,273.682 C512,189.838 443.781,121.619 359.93,121.619 Z" id="Path"></path>
        </g>
    </g>
</svg>